<svg xmlns="http://www.w3.org/2000/svg" viewBox="0 0 448 512"><rect width="448" height="512" rx="100" fill="#fff"/><path d="M224 109.3c58.9 0 66.1.2 89.4 1.3 21.7.9 33.6 4.5 41.4 7.5 10.4 4 17.8 8.8 25.6 16.6 7.8 7.8 12.6 15.2 16.6 25.6 3 7.8 6.6 19.7 7.5 41.4 1.1 23.3 1.3 30.5 1.3 89.4s-.2 66.1-1.3 89.4c-.9 21.7-4.5 33.6-7.5 41.4-4 10.4-8.8 17.8-16.6 25.6-7.8 7.8-15.2 12.6-25.6 16.6-7.8 3-19.7 6.6-41.4 7.5-23.3 1.1-30.5 1.3-89.4 1.3s-66.1-.2-89.4-1.3c-21.7-.9-33.6-4.5-41.4-7.5-10.4-4-17.8-8.8-25.6-16.6-7.8-7.8-12.6-15.2-16.6-25.6-3-7.8-6.6-19.7-7.5-41.4C1.2 290.1 1 282.9 1 224s.2-66.1 1.3-89.4c.9-21.7 4.5-33.6 7.5-41.4 4-10.4 8.8-17.8 16.6-25.6 7.8-7.8 15.2-12.6 25.6-16.6 7.8-3 19.7-6.6 41.4-7.5C157.9 109.5 165.1 109.3 224 109.3zm0-33.3C163.1 76 155.6 76.2 132 77.3c-24.1 1.1-40.6 5.2-55 11.1-15.1 6.1-27.8 14.2-40.5 26.9C24.2 127.2 16.1 139.9 10 155c-5.9 14.4-10 30.9-11.1 55C-1.2 163.1-1 170.6-1 224s.2 60.9 1.3 89.4c1.1 24.1 5.2 40.6 11.1 55 6.1 15.1 14.2 27.8 26.9 40.5 12.7 12.7 25.4 20.8 40.5 26.9 14.4 5.9 30.9 10 55 11.1 23.5 1.1 31 1.3 89.4 1.3s65.9-.2 89.4-1.3c24.1-1.1 40.6-5.2 55-11.1 15.1-6.1 27.8-14.2 40.5-26.9 12.7-12.7 20.8-25.4 26.9-40.5 5.9-14.4 10-30.9 11.1-55 1.1-23.5 1.3-31 1.3-89.4s-.2-65.9-1.3-89.4c-1.1-24.1-5.2-40.6-11.1-55-6.1-15.1-14.2-27.8-26.9-40.5-12.7-12.7-25.4-20.8-40.5-26.9-14.4-5.9-30.9-10-55-11.1C285.9 76.2 278.4 76 224 76zm0 73.7c-82.1 0-148.7 66.6-148.7 148.7S141.9 447.1 224 447.1 372.7 380.5 372.7 298.4 306.1 149.7 224 149.7zm0 245.7c-53.5 0-97-43.5-97-97s43.5-97 97-97 97 43.5 97 97-43.5 97-97 97zm146.4-241.2c0 19.2-15.6 34.8-34.8 34.8s-34.8-15.6-34.8-34.8 15.6-34.8 34.8-34.8 34.8 15.6 34.8 34.8z" fill="#E4405F"/></svg>