<svg xmlns="http://www.w3.org/2000/svg" viewBox="0 0 496 512"><rect width="496" height="512" rx="100" fill="#fff"/><path d="M248 8C111 8 0 119 0 256c0 110.3 71.3 203.9 170.7 236.7-2.4-20.1-4.6-51.1.1-73.1 5-21.5 32.2-136.7 32.2-136.7s-8.2-16.4-8.2-40.7c0-38.2 22.2-66.8 49.8-66.8 23.5 0 34.8 17.6 34.8 38.7 0 23.6-15 58.9-22.7 91.7-6.5 27.5 13.8 49.8 41 49.8 49.2 0 82.2-63.2 82.2-138.1 0-57.1-38.5-99.8-108.5-99.8-79.1 0-128.5 59.1-128.5 125.1 0 22.8 6.7 38.9 17.2 51.3 4.8 5.7 5.5 8 3.7 14.5-1.2 4.8-4 16.4-5.2 21-1.7 6.8-7.2 9.2-13.3 6.7-37.2-15.2-54.3-55.9-54.3-101.8 0-75.7 63.9-166.2 190.4-166.2 101.7 0 168.6 73.6 168.6 152.6 0 104.5-57.9 182.5-143.5 182.5-28.8 0-55.9-15.6-65.2-33.2 0 0-15.5 61.6-18.7 73.2-5.6 20.3-16.5 40.6-26.5 56.5C99.6 497.6 172.7 512 248 512c137 0 248-111 248-248S385 8 248 8z" fill="#E60023"/></svg>